<?xml version="1.0" encoding="UTF-8" standalone="no"?>
<!-- Generator: Adobe Illustrator 19.0.0, SVG Export Plug-In . SVG Version: 6.00 Build 0)  -->

<svg
   version="1.1"
   id="Layer_1"
   x="0px"
   y="0px"
   viewBox="0 0 512 512"
   style="enable-background:new 0 0 512 512;"
   xml:space="preserve"
   sodipodi:docname="Plus Transparent.svg"
   inkscape:version="1.1.2 (b8e25be833, 2022-02-05)"
   xmlns:inkscape="http://www.inkscape.org/namespaces/inkscape"
   xmlns:sodipodi="http://sodipodi.sourceforge.net/DTD/sodipodi-0.dtd"
   xmlns="http://www.w3.org/2000/svg"
   xmlns:svg="http://www.w3.org/2000/svg"><defs
   id="defs11" /><sodipodi:namedview
   id="namedview9"
   pagecolor="#505050"
   bordercolor="#000000"
   borderopacity="1"
   inkscape:pageshadow="0"
   inkscape:pageopacity="0"
   inkscape:pagecheckerboard="1"
   showgrid="false"
   inkscape:zoom="1.1366189"
   inkscape:cx="196.63582"
   inkscape:cy="268.33972"
   inkscape:window-width="1920"
   inkscape:window-height="1009"
   inkscape:window-x="-8"
   inkscape:window-y="-8"
   inkscape:window-maximized="1"
   inkscape:current-layer="Layer_1" />
	<g
   id="g6"
   style="fill:#000000;fill-opacity:1">
		<g
   id="g4"
   style="fill:#000000;fill-opacity:1">
			<path
   d="M 496,239.9995 H 272.0005 L 272.002,16 C 272.00206,6.4798183 266.29001,0 256,0 245.16011,0 240.00002,6.4772768 240,16 l -5e-4,224.0005 L 16,240 c -12.0210742,0 -16,10.109 -16,16 0,5.891 5.2881145,16.00052 16.0005,16.0005 L 240,272 v 224 c 0,9.19026 6.26086,16.001 16.001,16.001 9.85011,0 16.001,-7.47059 16.001,-16.001 V 272 H 496 c 12.57873,0 16.002,-10.109 16.002,-16 C 512,250.109 509.58966,239.9995 496,239.9995 Z"
   id="path2"
   style="fill:#000000;fill-opacity:1"
   sodipodi:nodetypes="scsssccsscssscscs" />
		</g>
	</g>
</svg>
